<mxfile host="app.diagrams.net" agent="Mozilla/5.0 (Macintosh; Intel Mac OS X 10_15_7) AppleWebKit/605.1.15 (KHTML, like Gecko) Version/18.3.1 Safari/605.1.15" version="26.2.10">
  <diagram name="Page-1" id="HxHMXl7Tirux2Snkjtcd">
    <mxGraphModel dx="2613" dy="1270" grid="0" gridSize="10" guides="1" tooltips="1" connect="1" arrows="1" fold="1" page="1" pageScale="1" pageWidth="850" pageHeight="1100" math="0" shadow="0">
      <root>
        <mxCell id="0" />
        <mxCell id="1" parent="0" />
        <mxCell id="UZv0-1ZAQY09o0ULd59S-2" value="" style="rounded=0;whiteSpace=wrap;html=1;dashed=1;movable=1;resizable=1;rotatable=1;deletable=1;editable=1;locked=0;connectable=1;" parent="1" vertex="1">
          <mxGeometry x="-130" y="480" width="775" height="420" as="geometry" />
        </mxCell>
        <mxCell id="UZv0-1ZAQY09o0ULd59S-3" value="Клиентское приложение" style="rounded=0;whiteSpace=wrap;html=1;fontSize=18;" parent="1" vertex="1">
          <mxGeometry x="121" y="293" width="160" height="60" as="geometry" />
        </mxCell>
        <mxCell id="UZv0-1ZAQY09o0ULd59S-4" value="Внешние интеграции" style="rounded=0;whiteSpace=wrap;html=1;fontSize=18;" parent="1" vertex="1">
          <mxGeometry x="321" y="273" width="160" height="60" as="geometry" />
        </mxCell>
        <mxCell id="UZv0-1ZAQY09o0ULd59S-6" value="Внешние интеграции" style="rounded=0;whiteSpace=wrap;html=1;fontSize=18;" parent="1" vertex="1">
          <mxGeometry x="331" y="283" width="160" height="60" as="geometry" />
        </mxCell>
        <mxCell id="UZv0-1ZAQY09o0ULd59S-7" value="Внешние интеграции" style="rounded=0;whiteSpace=wrap;html=1;fontSize=18;" parent="1" vertex="1">
          <mxGeometry x="341" y="293" width="160" height="60" as="geometry" />
        </mxCell>
        <mxCell id="UZv0-1ZAQY09o0ULd59S-8" value="Kubernetes Patform Core" style="text;html=1;align=center;verticalAlign=middle;whiteSpace=wrap;rounded=0;fontSize=18;" parent="1" vertex="1">
          <mxGeometry x="-127" y="484" width="220" height="30" as="geometry" />
        </mxCell>
        <mxCell id="UZv0-1ZAQY09o0ULd59S-11" value="Nginx" style="rounded=0;whiteSpace=wrap;html=1;fontSize=18;" parent="1" vertex="1">
          <mxGeometry x="-130" y="382" width="776" height="50" as="geometry" />
        </mxCell>
        <mxCell id="UZv0-1ZAQY09o0ULd59S-22" value="" style="endArrow=classic;html=1;rounded=0;exitX=0.313;exitY=1;exitDx=0;exitDy=0;exitPerimeter=0;fontSize=18;" parent="1" edge="1">
          <mxGeometry width="50" height="50" relative="1" as="geometry">
            <mxPoint x="385.50000000000006" y="353" as="sourcePoint" />
            <mxPoint x="386" y="383" as="targetPoint" />
          </mxGeometry>
        </mxCell>
        <mxCell id="UZv0-1ZAQY09o0ULd59S-23" value="" style="endArrow=classic;html=1;rounded=0;entryX=0.75;entryY=1;entryDx=0;entryDy=0;fontSize=18;" parent="1" edge="1">
          <mxGeometry width="50" height="50" relative="1" as="geometry">
            <mxPoint x="456" y="383" as="sourcePoint" />
            <mxPoint x="455.50000000000006" y="353" as="targetPoint" />
          </mxGeometry>
        </mxCell>
        <mxCell id="UZv0-1ZAQY09o0ULd59S-34" value="" style="endArrow=classic;html=1;rounded=0;exitX=0.313;exitY=1;exitDx=0;exitDy=0;exitPerimeter=0;fontSize=18;" parent="1" edge="1">
          <mxGeometry width="50" height="50" relative="1" as="geometry">
            <mxPoint x="165.75000000000006" y="353" as="sourcePoint" />
            <mxPoint x="166.25" y="383" as="targetPoint" />
          </mxGeometry>
        </mxCell>
        <mxCell id="UZv0-1ZAQY09o0ULd59S-35" value="" style="endArrow=classic;html=1;rounded=0;entryX=0.75;entryY=1;entryDx=0;entryDy=0;fontSize=18;" parent="1" edge="1">
          <mxGeometry width="50" height="50" relative="1" as="geometry">
            <mxPoint x="236.25" y="383" as="sourcePoint" />
            <mxPoint x="235.75000000000006" y="353" as="targetPoint" />
          </mxGeometry>
        </mxCell>
        <mxCell id="JEFppm0-2Yo-8nnSGJ8y-27" value="" style="group" vertex="1" connectable="0" parent="1">
          <mxGeometry x="262" y="650" width="160" height="230" as="geometry" />
        </mxCell>
        <mxCell id="JEFppm0-2Yo-8nnSGJ8y-20" value="" style="rounded=1;whiteSpace=wrap;html=1;arcSize=4;" vertex="1" parent="JEFppm0-2Yo-8nnSGJ8y-27">
          <mxGeometry width="160" height="230" as="geometry" />
        </mxCell>
        <mxCell id="JEFppm0-2Yo-8nnSGJ8y-21" value="Deployment" style="text;html=1;align=center;verticalAlign=middle;whiteSpace=wrap;rounded=0;" vertex="1" parent="JEFppm0-2Yo-8nnSGJ8y-27">
          <mxGeometry x="10" y="5" width="60" height="15" as="geometry" />
        </mxCell>
        <mxCell id="JEFppm0-2Yo-8nnSGJ8y-22" value="Spring&amp;nbsp;&lt;div&gt;Boot&lt;div&gt;Application&lt;/div&gt;&lt;/div&gt;" style="rounded=0;whiteSpace=wrap;html=1;fontSize=18;" vertex="1" parent="JEFppm0-2Yo-8nnSGJ8y-27">
          <mxGeometry x="15" y="45" width="130" height="150" as="geometry" />
        </mxCell>
        <mxCell id="JEFppm0-2Yo-8nnSGJ8y-28" value="" style="group" vertex="1" connectable="0" parent="1">
          <mxGeometry x="454" y="650" width="160" height="230" as="geometry" />
        </mxCell>
        <mxCell id="JEFppm0-2Yo-8nnSGJ8y-15" value="" style="rounded=1;whiteSpace=wrap;html=1;arcSize=4;" vertex="1" parent="JEFppm0-2Yo-8nnSGJ8y-28">
          <mxGeometry width="160" height="230" as="geometry" />
        </mxCell>
        <mxCell id="JEFppm0-2Yo-8nnSGJ8y-16" value="Deployment" style="text;html=1;align=center;verticalAlign=middle;whiteSpace=wrap;rounded=0;" vertex="1" parent="JEFppm0-2Yo-8nnSGJ8y-28">
          <mxGeometry x="10" y="5" width="60" height="15" as="geometry" />
        </mxCell>
        <mxCell id="JEFppm0-2Yo-8nnSGJ8y-7" value="&lt;font style=&quot;font-size: 20px;&quot;&gt;Postgres&lt;/font&gt;" style="shape=cylinder3;whiteSpace=wrap;html=1;boundedLbl=1;backgroundOutline=1;size=15;" vertex="1" parent="JEFppm0-2Yo-8nnSGJ8y-28">
          <mxGeometry x="25" y="50" width="110" height="150" as="geometry" />
        </mxCell>
        <mxCell id="JEFppm0-2Yo-8nnSGJ8y-31" value="" style="group" vertex="1" connectable="0" parent="1">
          <mxGeometry x="-114" y="650" width="160" height="230" as="geometry" />
        </mxCell>
        <mxCell id="JEFppm0-2Yo-8nnSGJ8y-17" value="" style="rounded=1;whiteSpace=wrap;html=1;arcSize=4;" vertex="1" parent="JEFppm0-2Yo-8nnSGJ8y-31">
          <mxGeometry width="160" height="230" as="geometry" />
        </mxCell>
        <mxCell id="JEFppm0-2Yo-8nnSGJ8y-18" value="Deployment" style="text;html=1;align=center;verticalAlign=middle;whiteSpace=wrap;rounded=0;" vertex="1" parent="JEFppm0-2Yo-8nnSGJ8y-31">
          <mxGeometry x="10" y="5" width="60" height="15" as="geometry" />
        </mxCell>
        <mxCell id="JEFppm0-2Yo-8nnSGJ8y-19" value="&lt;font style=&quot;font-size: 20px;&quot;&gt;Postgres&lt;/font&gt;" style="shape=cylinder3;whiteSpace=wrap;html=1;boundedLbl=1;backgroundOutline=1;size=15;" vertex="1" parent="JEFppm0-2Yo-8nnSGJ8y-31">
          <mxGeometry x="25" y="50" width="110" height="150" as="geometry" />
        </mxCell>
        <mxCell id="JEFppm0-2Yo-8nnSGJ8y-29" value="" style="group" vertex="1" connectable="0" parent="1">
          <mxGeometry x="72" y="650" width="160" height="230" as="geometry" />
        </mxCell>
        <mxCell id="JEFppm0-2Yo-8nnSGJ8y-23" value="" style="rounded=1;whiteSpace=wrap;html=1;arcSize=4;" vertex="1" parent="JEFppm0-2Yo-8nnSGJ8y-29">
          <mxGeometry width="160" height="230" as="geometry" />
        </mxCell>
        <mxCell id="JEFppm0-2Yo-8nnSGJ8y-24" value="Deployment" style="text;html=1;align=center;verticalAlign=middle;whiteSpace=wrap;rounded=0;" vertex="1" parent="JEFppm0-2Yo-8nnSGJ8y-29">
          <mxGeometry x="10" y="5" width="60" height="15" as="geometry" />
        </mxCell>
        <mxCell id="JEFppm0-2Yo-8nnSGJ8y-25" value="Keycloak" style="rounded=0;whiteSpace=wrap;html=1;fontSize=18;" vertex="1" parent="JEFppm0-2Yo-8nnSGJ8y-29">
          <mxGeometry x="15" y="45" width="130" height="150" as="geometry" />
        </mxCell>
        <mxCell id="JEFppm0-2Yo-8nnSGJ8y-83" value="" style="endArrow=classic;html=1;rounded=0;exitX=1.006;exitY=0.35;exitDx=0;exitDy=0;exitPerimeter=0;fontSize=18;entryX=0.005;entryY=0.431;entryDx=0;entryDy=0;entryPerimeter=0;" edge="1" parent="1" target="JEFppm0-2Yo-8nnSGJ8y-25">
          <mxGeometry width="50" height="50" relative="1" as="geometry">
            <mxPoint x="22" y="760" as="sourcePoint" />
            <mxPoint x="61" y="760" as="targetPoint" />
          </mxGeometry>
        </mxCell>
        <mxCell id="JEFppm0-2Yo-8nnSGJ8y-84" value="" style="endArrow=classic;html=1;rounded=0;fontSize=18;exitX=-0.004;exitY=0.666;exitDx=0;exitDy=0;exitPerimeter=0;" edge="1" parent="1" source="JEFppm0-2Yo-8nnSGJ8y-25">
          <mxGeometry width="50" height="50" relative="1" as="geometry">
            <mxPoint x="61" y="795" as="sourcePoint" />
            <mxPoint x="21" y="795" as="targetPoint" />
          </mxGeometry>
        </mxCell>
        <mxCell id="JEFppm0-2Yo-8nnSGJ8y-85" value="" style="endArrow=classic;html=1;rounded=0;exitX=1.006;exitY=0.35;exitDx=0;exitDy=0;exitPerimeter=0;fontSize=18;entryX=-0.004;entryY=0.414;entryDx=0;entryDy=0;entryPerimeter=0;" edge="1" parent="1" target="JEFppm0-2Yo-8nnSGJ8y-22">
          <mxGeometry width="50" height="50" relative="1" as="geometry">
            <mxPoint x="217" y="757" as="sourcePoint" />
            <mxPoint x="256" y="757" as="targetPoint" />
          </mxGeometry>
        </mxCell>
        <mxCell id="JEFppm0-2Yo-8nnSGJ8y-86" value="" style="endArrow=classic;html=1;rounded=0;fontSize=18;exitX=0;exitY=0.645;exitDx=0;exitDy=0;exitPerimeter=0;" edge="1" parent="1" source="JEFppm0-2Yo-8nnSGJ8y-22">
          <mxGeometry width="50" height="50" relative="1" as="geometry">
            <mxPoint x="256" y="792" as="sourcePoint" />
            <mxPoint x="216" y="792" as="targetPoint" />
          </mxGeometry>
        </mxCell>
        <mxCell id="JEFppm0-2Yo-8nnSGJ8y-87" value="" style="endArrow=classic;html=1;rounded=0;exitX=1.006;exitY=0.35;exitDx=0;exitDy=0;exitPerimeter=0;fontSize=18;entryX=0.001;entryY=0.373;entryDx=0;entryDy=0;entryPerimeter=0;" edge="1" parent="1" target="JEFppm0-2Yo-8nnSGJ8y-7">
          <mxGeometry width="50" height="50" relative="1" as="geometry">
            <mxPoint x="409" y="756" as="sourcePoint" />
            <mxPoint x="448" y="756" as="targetPoint" />
          </mxGeometry>
        </mxCell>
        <mxCell id="JEFppm0-2Yo-8nnSGJ8y-88" value="" style="endArrow=classic;html=1;rounded=0;fontSize=18;exitX=-0.004;exitY=0.605;exitDx=0;exitDy=0;exitPerimeter=0;" edge="1" parent="1" source="JEFppm0-2Yo-8nnSGJ8y-7">
          <mxGeometry width="50" height="50" relative="1" as="geometry">
            <mxPoint x="448" y="791" as="sourcePoint" />
            <mxPoint x="408" y="791" as="targetPoint" />
          </mxGeometry>
        </mxCell>
        <mxCell id="JEFppm0-2Yo-8nnSGJ8y-89" value="" style="group" vertex="1" connectable="0" parent="1">
          <mxGeometry x="344" y="513" width="235" height="102" as="geometry" />
        </mxCell>
        <mxCell id="JEFppm0-2Yo-8nnSGJ8y-13" value="" style="rounded=1;whiteSpace=wrap;html=1;arcSize=4;" vertex="1" parent="JEFppm0-2Yo-8nnSGJ8y-89">
          <mxGeometry width="235" height="102" as="geometry" />
        </mxCell>
        <mxCell id="JEFppm0-2Yo-8nnSGJ8y-14" value="Deployment" style="text;html=1;align=center;verticalAlign=middle;whiteSpace=wrap;rounded=0;" vertex="1" parent="JEFppm0-2Yo-8nnSGJ8y-89">
          <mxGeometry x="19" y="5" width="60" height="15" as="geometry" />
        </mxCell>
        <mxCell id="JEFppm0-2Yo-8nnSGJ8y-36" value="Istio EAG" style="rounded=0;whiteSpace=wrap;html=1;fontSize=18;" vertex="1" parent="JEFppm0-2Yo-8nnSGJ8y-89">
          <mxGeometry x="19" y="33" width="199" height="50" as="geometry" />
        </mxCell>
        <mxCell id="JEFppm0-2Yo-8nnSGJ8y-90" value="" style="group" vertex="1" connectable="0" parent="1">
          <mxGeometry x="96" y="514" width="235" height="102" as="geometry" />
        </mxCell>
        <mxCell id="JEFppm0-2Yo-8nnSGJ8y-33" value="" style="rounded=1;whiteSpace=wrap;html=1;arcSize=4;" vertex="1" parent="JEFppm0-2Yo-8nnSGJ8y-90">
          <mxGeometry width="235" height="102" as="geometry" />
        </mxCell>
        <mxCell id="JEFppm0-2Yo-8nnSGJ8y-34" value="Deployment" style="text;html=1;align=center;verticalAlign=middle;whiteSpace=wrap;rounded=0;" vertex="1" parent="JEFppm0-2Yo-8nnSGJ8y-90">
          <mxGeometry x="19" y="5" width="60" height="15" as="geometry" />
        </mxCell>
        <mxCell id="JEFppm0-2Yo-8nnSGJ8y-35" value="Istio IAG" style="rounded=0;whiteSpace=wrap;html=1;fontSize=18;" vertex="1" parent="JEFppm0-2Yo-8nnSGJ8y-90">
          <mxGeometry x="19" y="33" width="190" height="50" as="geometry" />
        </mxCell>
        <mxCell id="JEFppm0-2Yo-8nnSGJ8y-91" value="" style="endArrow=classic;html=1;rounded=0;fontSize=18;entryX=0.143;entryY=1.028;entryDx=0;entryDy=0;entryPerimeter=0;" edge="1" parent="1" target="JEFppm0-2Yo-8nnSGJ8y-36">
          <mxGeometry width="50" height="50" relative="1" as="geometry">
            <mxPoint x="391" y="649" as="sourcePoint" />
            <mxPoint x="349" y="604" as="targetPoint" />
          </mxGeometry>
        </mxCell>
        <mxCell id="JEFppm0-2Yo-8nnSGJ8y-92" value="" style="endArrow=classic;html=1;rounded=0;fontSize=18;exitX=0.874;exitY=1.014;exitDx=0;exitDy=0;exitPerimeter=0;entryX=0.125;entryY=-0.003;entryDx=0;entryDy=0;entryPerimeter=0;" edge="1" parent="1" source="JEFppm0-2Yo-8nnSGJ8y-35" target="JEFppm0-2Yo-8nnSGJ8y-20">
          <mxGeometry width="50" height="50" relative="1" as="geometry">
            <mxPoint x="349" y="639" as="sourcePoint" />
            <mxPoint x="309" y="639" as="targetPoint" />
          </mxGeometry>
        </mxCell>
        <mxCell id="UZv0-1ZAQY09o0ULd59S-18" value="" style="endArrow=classic;html=1;rounded=0;exitX=0.447;exitY=1;exitDx=0;exitDy=0;exitPerimeter=0;fontSize=18;entryX=0.519;entryY=0.294;entryDx=0;entryDy=0;entryPerimeter=0;" parent="1" source="UZv0-1ZAQY09o0ULd59S-11" edge="1" target="JEFppm0-2Yo-8nnSGJ8y-33">
          <mxGeometry width="50" height="50" relative="1" as="geometry">
            <mxPoint x="351" y="653" as="sourcePoint" />
            <mxPoint x="283.5" y="513" as="targetPoint" />
          </mxGeometry>
        </mxCell>
        <mxCell id="UZv0-1ZAQY09o0ULd59S-19" value="" style="endArrow=classic;html=1;rounded=0;fontSize=18;exitX=0.541;exitY=-0.02;exitDx=0;exitDy=0;exitPerimeter=0;" parent="1" edge="1" source="JEFppm0-2Yo-8nnSGJ8y-36">
          <mxGeometry width="50" height="50" relative="1" as="geometry">
            <mxPoint x="471.15" y="512" as="sourcePoint" />
            <mxPoint x="471" y="432" as="targetPoint" />
          </mxGeometry>
        </mxCell>
        <mxCell id="JEFppm0-2Yo-8nnSGJ8y-94" value="" style="group" vertex="1" connectable="0" parent="1">
          <mxGeometry x="663" y="598" width="457" height="301" as="geometry" />
        </mxCell>
        <mxCell id="UZv0-1ZAQY09o0ULd59S-14" value="" style="rounded=0;whiteSpace=wrap;html=1;dashed=1;movable=1;resizable=1;rotatable=1;deletable=1;editable=1;locked=0;connectable=1;" parent="JEFppm0-2Yo-8nnSGJ8y-94" vertex="1">
          <mxGeometry width="457" height="301" as="geometry" />
        </mxCell>
        <mxCell id="JEFppm0-2Yo-8nnSGJ8y-77" value="" style="group" vertex="1" connectable="0" parent="JEFppm0-2Yo-8nnSGJ8y-94">
          <mxGeometry x="247.57999999999998" y="65" width="192.41999999999996" height="151" as="geometry" />
        </mxCell>
        <mxCell id="JEFppm0-2Yo-8nnSGJ8y-68" value="" style="rounded=1;whiteSpace=wrap;html=1;arcSize=4;" vertex="1" parent="JEFppm0-2Yo-8nnSGJ8y-77">
          <mxGeometry x="46.70999999999998" y="49" width="145.71" height="102" as="geometry" />
        </mxCell>
        <mxCell id="JEFppm0-2Yo-8nnSGJ8y-69" value="" style="rounded=1;whiteSpace=wrap;html=1;arcSize=4;" vertex="1" parent="JEFppm0-2Yo-8nnSGJ8y-77">
          <mxGeometry x="36.70999999999998" y="39" width="145.71" height="102" as="geometry" />
        </mxCell>
        <mxCell id="JEFppm0-2Yo-8nnSGJ8y-70" value="" style="rounded=1;whiteSpace=wrap;html=1;arcSize=4;" vertex="1" parent="JEFppm0-2Yo-8nnSGJ8y-77">
          <mxGeometry x="26.70999999999998" y="29" width="145.71" height="102" as="geometry" />
        </mxCell>
        <mxCell id="JEFppm0-2Yo-8nnSGJ8y-71" value="" style="rounded=1;whiteSpace=wrap;html=1;arcSize=4;" vertex="1" parent="JEFppm0-2Yo-8nnSGJ8y-77">
          <mxGeometry x="16.70999999999998" y="19" width="145.71" height="102" as="geometry" />
        </mxCell>
        <mxCell id="JEFppm0-2Yo-8nnSGJ8y-72" value="" style="rounded=1;whiteSpace=wrap;html=1;arcSize=4;" vertex="1" parent="JEFppm0-2Yo-8nnSGJ8y-77">
          <mxGeometry x="6.7099999999999795" y="9" width="145.71" height="102" as="geometry" />
        </mxCell>
        <mxCell id="JEFppm0-2Yo-8nnSGJ8y-73" value="" style="rounded=1;whiteSpace=wrap;html=1;arcSize=4;" vertex="1" parent="JEFppm0-2Yo-8nnSGJ8y-77">
          <mxGeometry width="145.71" height="102" as="geometry" />
        </mxCell>
        <mxCell id="JEFppm0-2Yo-8nnSGJ8y-74" value="V1CronJob" style="text;html=1;align=center;verticalAlign=middle;whiteSpace=wrap;rounded=0;" vertex="1" parent="JEFppm0-2Yo-8nnSGJ8y-77">
          <mxGeometry x="6.710000000000036" y="5" width="60" height="15" as="geometry" />
        </mxCell>
        <mxCell id="JEFppm0-2Yo-8nnSGJ8y-75" value="User Job" style="rounded=0;whiteSpace=wrap;html=1;" vertex="1" parent="JEFppm0-2Yo-8nnSGJ8y-77">
          <mxGeometry x="11.710000000000036" y="30" width="120" height="60" as="geometry" />
        </mxCell>
        <mxCell id="JEFppm0-2Yo-8nnSGJ8y-76" value="" style="group" vertex="1" connectable="0" parent="JEFppm0-2Yo-8nnSGJ8y-94">
          <mxGeometry x="14" y="65" width="192.42000000000002" height="151" as="geometry" />
        </mxCell>
        <mxCell id="JEFppm0-2Yo-8nnSGJ8y-67" value="" style="rounded=1;whiteSpace=wrap;html=1;arcSize=4;" vertex="1" parent="JEFppm0-2Yo-8nnSGJ8y-76">
          <mxGeometry x="46.709999999999994" y="49" width="145.71" height="102" as="geometry" />
        </mxCell>
        <mxCell id="JEFppm0-2Yo-8nnSGJ8y-66" value="" style="rounded=1;whiteSpace=wrap;html=1;arcSize=4;" vertex="1" parent="JEFppm0-2Yo-8nnSGJ8y-76">
          <mxGeometry x="36.709999999999994" y="39" width="145.71" height="102" as="geometry" />
        </mxCell>
        <mxCell id="JEFppm0-2Yo-8nnSGJ8y-65" value="" style="rounded=1;whiteSpace=wrap;html=1;arcSize=4;" vertex="1" parent="JEFppm0-2Yo-8nnSGJ8y-76">
          <mxGeometry x="26.709999999999994" y="29" width="145.71" height="102" as="geometry" />
        </mxCell>
        <mxCell id="JEFppm0-2Yo-8nnSGJ8y-64" value="" style="rounded=1;whiteSpace=wrap;html=1;arcSize=4;" vertex="1" parent="JEFppm0-2Yo-8nnSGJ8y-76">
          <mxGeometry x="16.709999999999994" y="19" width="145.71" height="102" as="geometry" />
        </mxCell>
        <mxCell id="JEFppm0-2Yo-8nnSGJ8y-63" value="" style="rounded=1;whiteSpace=wrap;html=1;arcSize=4;" vertex="1" parent="JEFppm0-2Yo-8nnSGJ8y-76">
          <mxGeometry x="6.709999999999994" y="9" width="145.71" height="102" as="geometry" />
        </mxCell>
        <mxCell id="JEFppm0-2Yo-8nnSGJ8y-37" value="" style="rounded=1;whiteSpace=wrap;html=1;arcSize=4;" vertex="1" parent="JEFppm0-2Yo-8nnSGJ8y-76">
          <mxGeometry width="145.71" height="102" as="geometry" />
        </mxCell>
        <mxCell id="JEFppm0-2Yo-8nnSGJ8y-38" value="V1Job" style="text;html=1;align=center;verticalAlign=middle;whiteSpace=wrap;rounded=0;" vertex="1" parent="JEFppm0-2Yo-8nnSGJ8y-76">
          <mxGeometry x="6.710000000000008" y="5" width="60" height="15" as="geometry" />
        </mxCell>
        <mxCell id="JEFppm0-2Yo-8nnSGJ8y-47" value="User Job" style="rounded=0;whiteSpace=wrap;html=1;" vertex="1" parent="JEFppm0-2Yo-8nnSGJ8y-76">
          <mxGeometry x="11.710000000000008" y="30" width="120" height="60" as="geometry" />
        </mxCell>
        <mxCell id="UZv0-1ZAQY09o0ULd59S-16" value="Kubernetes Sandbox" style="text;html=1;align=center;verticalAlign=middle;whiteSpace=wrap;rounded=0;fontSize=18;" parent="JEFppm0-2Yo-8nnSGJ8y-94" vertex="1">
          <mxGeometry width="203" height="41.05" as="geometry" />
        </mxCell>
        <mxCell id="UZv0-1ZAQY09o0ULd59S-15" value="Kubernetes API Server" style="rounded=0;whiteSpace=wrap;html=1;fontSize=18;" parent="JEFppm0-2Yo-8nnSGJ8y-94" vertex="1">
          <mxGeometry x="14" y="246" width="426" height="36.27" as="geometry" />
        </mxCell>
        <mxCell id="JEFppm0-2Yo-8nnSGJ8y-101" value="" style="endArrow=classic;html=1;rounded=0;fontSize=18;exitX=0.874;exitY=1.014;exitDx=0;exitDy=0;exitPerimeter=0;" edge="1" parent="JEFppm0-2Yo-8nnSGJ8y-94">
          <mxGeometry width="50" height="50" relative="1" as="geometry">
            <mxPoint x="101" y="216" as="sourcePoint" />
            <mxPoint x="101" y="244" as="targetPoint" />
          </mxGeometry>
        </mxCell>
        <mxCell id="JEFppm0-2Yo-8nnSGJ8y-102" value="" style="endArrow=classic;html=1;rounded=0;fontSize=18;exitX=0.874;exitY=1.014;exitDx=0;exitDy=0;exitPerimeter=0;" edge="1" parent="JEFppm0-2Yo-8nnSGJ8y-94">
          <mxGeometry width="50" height="50" relative="1" as="geometry">
            <mxPoint x="150" y="243.99999999999955" as="sourcePoint" />
            <mxPoint x="150" y="215.99999999999955" as="targetPoint" />
          </mxGeometry>
        </mxCell>
        <mxCell id="JEFppm0-2Yo-8nnSGJ8y-103" value="" style="endArrow=classic;html=1;rounded=0;fontSize=18;exitX=0.874;exitY=1.014;exitDx=0;exitDy=0;exitPerimeter=0;" edge="1" parent="JEFppm0-2Yo-8nnSGJ8y-94">
          <mxGeometry width="50" height="50" relative="1" as="geometry">
            <mxPoint x="339" y="216" as="sourcePoint" />
            <mxPoint x="339" y="244" as="targetPoint" />
          </mxGeometry>
        </mxCell>
        <mxCell id="JEFppm0-2Yo-8nnSGJ8y-104" value="" style="endArrow=classic;html=1;rounded=0;fontSize=18;exitX=0.874;exitY=1.014;exitDx=0;exitDy=0;exitPerimeter=0;" edge="1" parent="JEFppm0-2Yo-8nnSGJ8y-94">
          <mxGeometry width="50" height="50" relative="1" as="geometry">
            <mxPoint x="388" y="243.99999999999955" as="sourcePoint" />
            <mxPoint x="388" y="215.99999999999955" as="targetPoint" />
          </mxGeometry>
        </mxCell>
        <mxCell id="JEFppm0-2Yo-8nnSGJ8y-96" style="edgeStyle=orthogonalEdgeStyle;rounded=0;orthogonalLoop=1;jettySize=auto;html=1;exitX=0.25;exitY=1;exitDx=0;exitDy=0;entryX=0.75;entryY=1;entryDx=0;entryDy=0;" edge="1" parent="1" source="JEFppm0-2Yo-8nnSGJ8y-22" target="UZv0-1ZAQY09o0ULd59S-15">
          <mxGeometry relative="1" as="geometry">
            <Array as="points">
              <mxPoint x="310" y="947" />
              <mxPoint x="996" y="947" />
            </Array>
          </mxGeometry>
        </mxCell>
        <mxCell id="JEFppm0-2Yo-8nnSGJ8y-97" style="edgeStyle=orthogonalEdgeStyle;rounded=0;orthogonalLoop=1;jettySize=auto;html=1;exitX=0.25;exitY=1;exitDx=0;exitDy=0;entryX=0.75;entryY=1;entryDx=0;entryDy=0;" edge="1" parent="1" source="UZv0-1ZAQY09o0ULd59S-15" target="JEFppm0-2Yo-8nnSGJ8y-22">
          <mxGeometry relative="1" as="geometry">
            <Array as="points">
              <mxPoint x="784" y="921" />
              <mxPoint x="374" y="921" />
            </Array>
          </mxGeometry>
        </mxCell>
      </root>
    </mxGraphModel>
  </diagram>
</mxfile>
